<?xml version="1.0" encoding="UTF-8" standalone="no"?>
<svg width="163px" height="164px" viewBox="0 0 163 164" version="1.1" xmlns="http://www.w3.org/2000/svg" xmlns:xlink="http://www.w3.org/1999/xlink" xmlns:sketch="http://www.bohemiancoding.com/sketch/ns">
    <!-- Generator: Sketch 3.3.2 (12043) - http://www.bohemiancoding.com/sketch -->
    <title>Oval 1 Copy + RB Copy</title>
    <desc>Created with Sketch.</desc>
    <defs></defs>
    <g id="Page-1" stroke="none" stroke-width="1" fill="none" fill-rule="evenodd" sketch:type="MSPage">
        <g id="Oval-1-Copy-+-RB-Copy" sketch:type="MSLayerGroup" transform="translate(1.000000, 1.000000)" stroke="#000000" stroke-width="2">
            <circle id="Oval-1-Copy" sketch:type="MSShapeGroup" cx="80.3359375" cy="80.7148438" r="80.3359375"></circle>
            <path d="M46.4132746,78.6861138 L53.0165917,78.6861138 C57.4453445,78.6861138 60.6541533,77.8640223 62.6431141,76.2198147 C64.632075,74.575607 65.6265405,72.1358516 65.6265405,68.9004753 C65.6265405,65.61206 64.5525177,63.2518619 62.40444,61.81981 C60.2563623,60.3877582 57.0210345,59.671743 52.6983595,59.671743 L46.4132746,59.671743 L46.4132746,78.6861138 Z M46.4132746,86.5623594 L46.4132746,109.793306 L36.9060892,109.793306 L36.9060892,51.6363813 L53.3348238,51.6363813 C60.8398361,51.6363813 66.3955835,53.0418926 70.0022325,55.8529573 C73.6088815,58.664022 75.412179,62.9070748 75.412179,68.5822432 C75.412179,75.8220607 71.6464696,80.9800218 64.1149378,84.0562813 L80.5436724,109.793306 L69.7237794,109.793306 L55.801123,86.5623594 L46.4132746,86.5623594 Z M88.9768243,51.6363813 L106.240918,51.6363813 C114.249801,51.6363813 120.03759,52.8032209 123.60446,55.136935 C127.17133,57.470649 128.954738,61.1568012 128.954738,66.1955021 C128.954738,69.5899953 128.079608,72.4142773 126.329322,74.668433 C124.579037,76.9225886 122.059724,78.3413594 118.771309,78.9247879 L118.771309,79.3225781 C122.855309,80.091643 125.858594,81.6098603 127.781257,83.8772757 C129.703919,86.1446911 130.665235,89.2142746 130.665235,93.0861185 C130.665235,98.3104557 128.842049,102.401024 125.19562,105.357946 C121.549192,108.314867 116.477418,109.793306 109.980146,109.793306 L88.9768243,109.793306 L88.9768243,51.6363813 Z M98.4840096,75.6629084 L107.633184,75.6629084 C111.611106,75.6629084 114.514945,75.0330803 116.344789,73.773405 C118.174633,72.5137298 119.089541,70.3723141 119.089541,67.3490936 C119.089541,64.6175873 118.101705,62.6419158 116.126004,61.4220199 C114.150303,60.2021239 111.014422,59.592185 106.718266,59.592185 L98.4840096,59.592185 L98.4840096,75.6629084 Z M98.4840096,83.380038 L98.4840096,101.797723 L108.58788,101.797723 C112.565802,101.797723 115.569088,101.0353 117.597828,99.5104299 C119.626568,97.9855599 120.640923,95.5789534 120.640923,92.2905381 C120.640923,89.2673176 119.606679,87.0264553 117.538159,85.567884 C115.46964,84.1093127 112.327129,83.380038 108.110532,83.380038 L98.4840096,83.380038 Z" id="RB-Copy" fill-opacity="0" fill="#FFFFFF" sketch:type="MSShapeGroup"></path>
        </g>
    </g>
</svg>